<?xml version="1.0" encoding="utf-8"?>
<!-- Generator: Adobe Illustrator 18.1.1, SVG Export Plug-In . SVG Version: 6.00 Build 0)  -->
<svg version="1.1" id="Layer_1" xmlns="http://www.w3.org/2000/svg" xmlns:xlink="http://www.w3.org/1999/xlink" x="0px" y="0px"
	 viewBox="0 0 1000 300" enable-background="new 0 0 1000 300" xml:space="preserve">
<path fill="#512888" d="M65.1,50.7h51.5v7.9c0,0-12.3-1-13.5,10.3c0,11.3,0,25.8,0,25.8s24.8-20.1,27.7-28.2
	c1.2-1.2,4.4-5.9-6.1-6.9c0-2.7,0-8.8,0-8.8h45.1v9.1c0,0-13.5,3.4-21.6,11s-20.6,18.2-20.6,18.2l33.1,47.1c0,0,4.7,7.6,14.2,9.8
	c0,3.9,0,7.1,0,7.1h-51V145c0,0,15.2,0.2,9.3-7.9c-4.9-7.8-23.3-33.9-23.3-33.9l-7.1,5.4v27.7c0,0,0.5,8.6,13.5,8.3
	c0.2,3.4,0,8.3,0,8.3H64.9v-8.3H69c0,0,8.1,0.2,9.1-7.4c0.2-6.6,0-69,0-69s-1.2-9.1-8.6-9.6c-2.7,0-4.4,0-4.4,0V50.7z"/>
<path fill="#512888" d="M188,139.7l21.8-50.8l-2.5-6.4l17.4-5.2c0,0,19.6,53.2,22.6,60.8c2.9,7.6,9.3,6.9,9.3,6.9v7.4h-36.8V145
	c0,0,1.2,0,3.2,0c8.3-0.7,4.9-5.6,4.9-5.6l-4.2-11.3h-20.4c0,0-2,6.1-3.9,11.3c-2,5.2,6.9,5.9,6.9,5.9v7.4h-26.5v-7.4
	C186.3,145.1,188,139.7,188,139.7z M206.9,118.9h14l-6.9-18.4L206.9,118.9z"/>
<path fill="#512888" d="M261.7,80.1h26.5l37.1,44.7v-18.4c0,0-0.5-8.6-1.2-11.8s-3.2-6.9-7.4-7.1c-1.7,0.2-2.7-0.2-2.7-0.2v-7.1
	h29.4v7.6c0,0-9.1-0.2-9.3,7.6c-0.2,7.8,0,58.1,0,58.1H324l-41-51.3v33.9c0,0-1.2,9.8,11,9.3c0,2.7,0,7.1,0,7.1h-32.1v-7.4
	c0,0,11.3,1,11.8-8.3s0-43.9,0-43.9s-5.6-5.4-11.8-5.9C261.9,84.5,261.7,80.1,261.7,80.1z"/>
<path fill="#512888" d="M413.3,139.6l21.8-50.8l-2.5-6.4l17.4-5.2c0,0,19.6,53.2,22.6,60.9c2.9,7.6,9.3,6.9,9.3,6.9v7.4h-36.8V145
	c0,0,1.2,0,3.2,0c8.3-0.7,4.9-5.6,4.9-5.6l-4.2-11.3h-20.4c0,0-2,6.1-3.9,11.3c-2,5.2,6.9,5.9,6.9,5.9v7.4h-26.5v-7.4
	C411.6,145,413.3,139.6,413.3,139.6z M432.2,118.7h14l-6.9-18.4L432.2,118.7z"/>
<path fill="#512888" d="M735.7,139.6l21.8-50.8l-2.5-6.4l17.4-5.2c0,0,19.6,53.2,22.6,60.9c2.9,7.6,9.3,6.9,9.3,6.9v7.4h-36.8V145
	c0,0,1.2,0,3.2,0c8.3-0.7,4.9-5.6,4.9-5.6l-4.2-11.3H751c0,0-2,6.1-3.9,11.3c-2,5.2,6.9,5.9,6.9,5.9v7.4h-26.5v-7.4
	C734,145,735.7,139.6,735.7,139.6z M754.6,118.7h14l-6.9-18.4L754.6,118.7z"/>
<path fill="#512888" d="M401.2,104.6V80.9h-8.7c0,0-15.5-4.4-24.5-2.8c-9,1.6-19.3,6.5-19.6,16.8c-0.3,10.3,1.3,16.4,15.5,24.2
	c14.2,7.9,25.4,10.1,24.2,17.3c0,0,1.3,7.2-9.8,7.7c-3.8,0-18,0.7-25.7-20.4c-4.3,0.2-7.2,0-7.2,0l5.2,29.8c0,0,5.4-3.1,9.5-2.8
	s17.2,5.7,28.6,1.8c11.5-3.9,31.2-24.2-1.1-44c-7.9-4.1-21.9-8.8-21.9-13.2c0.2-3.4,0-7.7,5.1-8.5c3.4,0,19.1,0,23.9,18
	C396.3,105,401.2,104.6,401.2,104.6z"/>
<path fill="#512888" d="M539.6,104.6V80.9h-8.7c0,0-15.5-4.4-24.5-2.8c-9,1.6-19.3,6.5-19.6,16.8c-0.3,10.3,1.3,16.4,15.5,24.2
	c14.2,7.9,25.4,10.1,24.2,17.3c0,0,1.3,7.2-9.8,7.7c-3.8,0-18,0.7-25.7-20.4c-4.3,0.2-7.2,0-7.2,0l5.2,29.8c0,0,5.4-3.1,9.5-2.8
	s17.2,5.7,28.6,1.8c11.4-3.9,31.2-24.2-1.1-44c-7.9-4.1-21.9-8.8-21.9-13.2c0.2-3.4,0-7.7,5.1-8.5c3.4,0,19.1,0,23.9,18
	C534.7,105,539.6,104.6,539.6,104.6z"/>
<path fill="#512888" d="M667.8,79.1h64l1.6,26.8h-7.2c0,0,0.5-17.2-17-16.8c0.2,6.4,0,49.9,0,49.9s-0.7,4.6,4.7,5.6s6.7,0.7,6.7,0.7
	v7h-41.2V145c0,0,6.5,0.2,9.2-1.5c2.6-1.6,2-3.3,2.1-4.3c0.2-1,0-50.4,0-50.4s-15.4-1.3-16.7,16.8c-3.9,0-7.5,0-7.5,0L667.8,79.1z"
	/>
<path fill="#512888" d="M799.3,79.5h64l1.6,26.8h-7.2c0,0,0.5-17.2-17-16.8c0.2,6.4,0,49.9,0,49.9s-0.7,4.6,4.7,5.6s6.7,0.7,6.7,0.7
	v7h-41.2v-7.2c0,0,6.5,0.2,9.2-1.5c2.6-1.6,2-3.3,2.1-4.3c0.2-1,0-50.4,0-50.4s-15.4-1.3-16.7,16.8c-3.9,0-7.5,0-7.5,0L799.3,79.5z"
	/>
<path fill="#512888" d="M867,79.3h63.6l1.3,23.9l-6.5,1.1c0,0-2.1-15.5-17.3-16c-6.5,0-11.8,0-11.8,0V111c0,0,12.8,1.5,15-10.6
	c2.8,0,6.5,0,6.5,0v30.3h-6.2c0,0-2-11.9-15.4-11.8c0.2,6.2,0,23.9,0,23.9h11.5c0,0,17.2,0.7,22.6-17.5c1.6,1.3,6.1,4.6,6.1,4.6
	l-5.4,22.6h-64.1v-7.7c0,0,9.8,1.5,10.5-5.2s0-47.8,0-47.8s0.3-4.4-10.5-4.6C866.9,84.9,867,79.3,867,79.3z"/>
<path fill="#512888" d="M650.8,84.2h7V52.6h-10.6c0,0-12.4-2.9-16.7-3.6c-4.3-0.7-23.4-1.3-29.8,2c-6.4,3.3-17.8,7.8-16.2,29.8
	c2.6,12.4,8,14.9,14.4,20s34.2,15.5,36.6,19.3c3.1,3.1,7.4,6,6.1,12.9c-0.5,3.1-0.5,7.2-10.8,9.8c-5.7,0.7-10.8,0.3-14.2-0.2
	s-21.4-6.9-28.3-28.5c-5.6,0-7.9,0-7.9,0l7,39.3c0,0,5.7-3.3,8.7-3.3c2.9,0,16.8,2.9,23.2,3.9s24,0.3,31.6-6.2
	c7.5-6.5,16.5-16.2,10.5-34.8c-4.9-8.3-12.9-18.2-29-24c-12.3-5.4-23.9-10.3-25.5-16.4c-0.3-5.1-0.3-11,7.4-13.9
	c5.6-0.7,14.7-1.3,23.4,5.9C642.5,69.3,647.4,71.9,650.8,84.2z"/>
<rect x="63.9" y="174.2" fill="#512888" width="867.1" height="5.4"/>
<path fill="#512888" d="M65.4,201.9h12.3v33.9c0,0,1.2,5.9,8.1,5.6c6.9-0.2,8.6-3.4,8.8-6.1c0.2-2.7,0-33.4,0-33.4h12v32.9
	c0,0,0.2,16.2-20.9,17.2s-20.4-16-20.4-16L65.4,201.9L65.4,201.9z"/>
<polygon fill="#512888" points="166.4,250.7 178,250.7 178,220.5 195.4,250.7 207.4,250.7 207.4,201.9 195.6,201.9 195.6,232.1 
	178,201.9 166,201.9 "/>
<polygon fill="#512888" points="266.6,201.6 279.1,201.6 279.1,250.7 266.8,250.7 "/>
<polygon fill="#512888" points="334,201.9 347,201.9 357.1,236 367.1,201.6 380.4,201.6 363.2,251.2 351,251.2 "/>
<polygon fill="#512888" points="435.1,201.9 471.2,201.9 471.2,211.5 447.6,211.5 447.6,220.3 469.5,220.3 469.5,229.9 447.4,229.9 
	447.4,241.2 473.4,241.2 473.4,251 435.4,251 "/>
<path fill="#512888" d="M558.3,201.9c0,0,14.2,2.2,14,15s-10.1,14.7-10.1,14.7l11,19.6H560l-10-17.9h-7.4V251h-12.3v-49.1H558.3z
	 M542.8,211.2v13h11.3c0,0,6.1-0.5,5.9-6.6c-0.2-6.1-4.9-6.6-4.9-6.6L542.8,211.2z"/>
<path fill="#512888" d="M660.6,216.4l8.8-6.1c0,0-6.1-7.9-20.4-9.6c-9.3,1.5-19.1,3.2-21.1,13.3c-2,10.1,7.8,15.7,14.5,16.9
	c6.6,1.2,14.5,1.5,15,4.9s-1.2,7.1-9.8,6.1s-13-5.9-13-5.9l-9.1,5.6c0,0,4.4,10.3,21.1,10.1c16.7-0.2,20.9-5.1,23.3-15.9
	c2.5-10.8-13.3-14.2-13.3-14.2s-12.8-1.2-15-3.2s-0.5-7.6,4.4-8.1C651,209.7,657.4,212.9,660.6,216.4z"/>
<polygon fill="#512888" points="727.3,201.9 739.9,201.9 739.9,251 727.6,251 "/>
<polygon fill="#512888" points="794.8,201.9 832.6,201.9 832.6,211.5 819.8,211.5 819.8,251 807.8,251 807.8,211.7 795.1,211.7 "/>
<polygon fill="#512888" points="884.1,201.9 897.9,201.9 908.2,218.1 918.7,201.9 932.2,201.9 914.3,227.4 914.3,251 902.1,251 
	902.1,227.9 "/>
</svg>
