<?xml version="1.0" encoding="utf-8"?>
<!-- Generator: Adobe Illustrator 18.1.1, SVG Export Plug-In . SVG Version: 6.00 Build 0)  -->
<svg version="1.1" id="Layer_1" xmlns="http://www.w3.org/2000/svg" xmlns:xlink="http://www.w3.org/1999/xlink" x="0px" y="0px"
	 viewBox="0 0 1000 500" enable-background="new 0 0 1000 500" xml:space="preserve">
<g>
	<g>
		<g>
			<path fill="#FFFFFF" d="M60,424.3H47.3v12H60v-4.1l4.7,0.9v2.3c0,1.8-0.3,3-1,3.6c-0.7,0.6-2,1-4,1h-12c-1.9,0-3.3-0.3-4-1
				c-0.7-0.6-1.1-1.9-1.1-3.6v-10.2c0-1.7,0.3-2.9,1-3.6c0.7-0.6,2-1,4-1h12c2,0,3.3,0.3,4,1c0.7,0.6,1,1.8,1,3.6v1.9l-4.7,0.7
				V424.3z"/>
		</g>
		<g>
			<path fill="#FFFFFF" d="M71.9,425.3c0-1.7,0.3-2.9,1-3.6c0.7-0.6,2-1,4-1h14.9c2,0,3.3,0.3,4,1c0.7,0.6,1,1.8,1,3.6v10.2
				c0,1.8-0.3,3-1.1,3.6c-0.7,0.6-2,1-4,1H77c-2,0-3.3-0.3-4-1c-0.7-0.6-1-1.9-1-3.6V425.3z M76.6,436.3h15.5v-12H76.6V436.3z"/>
		</g>
		<g>
			<path fill="#FFFFFF" d="M104.9,440v-19.3h3.8l9.4,11.4l9.4-11.4h3.8V440h-4.3v-13.3l-8.6,10.9h-0.9l-8.7-10.6V440H104.9z"/>
		</g>
		<g>
			<path fill="#FFFFFF" d="M139.8,440v-19.3h17.3c1.6,0,2.8,0.3,3.5,0.9c0.7,0.6,1.1,1.5,1.1,2.8v4.3c0,1.3-0.4,2.3-1.1,2.8
				c-0.7,0.6-1.9,0.9-3.5,0.9h-12.7v7.6H139.8z M155.1,424h-10.7v5.1h10.7c0.8,0,1.4-0.1,1.7-0.4c0.3-0.2,0.4-0.6,0.4-1.2v-2
				c0-0.6-0.1-1-0.4-1.2C156.5,424.1,155.9,424,155.1,424z"/>
		</g>
		<g>
			<path fill="#FFFFFF" d="M173.8,420.7v15.7h13.4v-15.7h4.7v14.7c0,1.7-0.3,2.9-1,3.6c-0.7,0.6-2,1-4,1h-12.8c-1.9,0-3.3-0.3-3.9-1
				c-0.7-0.6-1-1.8-1-3.6v-14.7H173.8z"/>
		</g>
		<g>
			<path fill="#FFFFFF" d="M212,424.2V440h-4.7v-15.8H198v-3.5h23.3v3.5H212z"/>
		</g>
		<g>
			<path fill="#FFFFFF" d="M227.4,440v-19.3h4.7V440H227.4z"/>
		</g>
		<g>
			<path fill="#FFFFFF" d="M240.6,440v-19.3h3.2l16.3,12.8v-12.8h4.3V440h-3.2l-16.3-13v13H240.6z"/>
		</g>
		<g>
			<path fill="#FFFFFF" d="M291.9,424.3h-14.6v12h14.6v-4.1h-7.6v-3.4h12.2v6.6c0,1.8-0.3,3-1,3.6c-0.7,0.6-2,1-4,1h-13.9
				c-2,0-3.3-0.3-4-1c-0.7-0.6-1-1.9-1-3.6v-10.1c0-1.7,0.3-2.9,1-3.6c0.7-0.7,2-1,4-1h13.9c1.9,0,3.3,0.3,3.9,0.9
				c0.7,0.6,1,1.8,1,3.4v0.5l-4.6,0.8V424.3z"/>
		</g>
		<g>
			<path fill="#FFFFFF" d="M319.1,440l11.4-19.3h4.5l11.6,19.3h-5.3l-2.4-4.2h-12.7l-2.4,4.2H319.1z M328.3,432.3h8.8l-4.5-8
				L328.3,432.3z"/>
		</g>
		<g>
			<path fill="#FFFFFF" d="M351.4,440v-19.3h3.2l16.3,12.8v-12.8h4.3V440H372l-16.2-13v13H351.4z"/>
		</g>
		<g>
			<path fill="#FFFFFF" d="M383.8,440v-19.3h12.9c3.7,0,6.6,0.8,8.6,2.5c2,1.7,3,4,3,7.1c0,3.2-1.1,5.7-3.2,7.3
				c-2.1,1.6-5.3,2.4-9.6,2.4H383.8z M388.5,436.4h6.1c3.3,0,5.6-0.5,6.9-1.4c1.3-1,2-2.6,2-4.9c0-2-0.5-3.5-1.7-4.4
				c-1.1-1-2.8-1.5-5.1-1.5h-8.3V436.4z"/>
		</g>
		<g>
			<path fill="#FFFFFF" d="M433,440v-19.3h4.7V440H433z"/>
		</g>
		<g>
			<path fill="#FFFFFF" d="M446.2,440v-19.3h3.2l16.3,12.8v-12.8h4.3V440h-3.2l-16.3-13v13H446.2z"/>
		</g>
		<g>
			<path fill="#FFFFFF" d="M478.6,440v-19.3H499v3.5h-15.7v5h8.4v3.6h-8.4v7.2H478.6z"/>
		</g>
		<g>
			<path fill="#FFFFFF" d="M503.2,425.3c0-1.7,0.3-2.9,1-3.6c0.7-0.6,2-1,4-1h14.9c2,0,3.3,0.3,4,1c0.7,0.6,1,1.8,1,3.6v10.2
				c0,1.8-0.3,3-1,3.6c-0.7,0.6-2,1-4,1h-14.9c-2,0-3.3-0.3-4-1c-0.7-0.6-1-1.9-1-3.6V425.3z M507.9,436.3h15.5v-12h-15.5V436.3z"/>
		</g>
		<g>
			<path fill="#FFFFFF" d="M536.2,440v-19.3h17.3c1.6,0,2.7,0.3,3.5,0.9c0.7,0.6,1.1,1.5,1.1,2.8v4.6c0,1.3-0.4,2.2-1.1,2.8
				c-0.7,0.6-1.9,0.9-3.5,0.9h-2.6l9.2,7.3h-6.7l-8.1-7.3h-4.4v7.3H536.2z M551.5,424h-10.7v5.4h10.7c0.8,0,1.4-0.1,1.7-0.4
				c0.3-0.2,0.4-0.6,0.4-1.2v-2.2c0-0.6-0.1-1-0.4-1.2C552.9,424.1,552.3,424,551.5,424z"/>
		</g>
		<g>
			<path fill="#FFFFFF" d="M565.7,440v-19.3h3.8l9.4,11.4l9.4-11.4h3.8V440h-4.3v-13.3l-8.6,10.9h-0.9l-8.7-10.6V440H565.7z"/>
		</g>
		<g>
			<path fill="#FFFFFF" d="M597.7,440l11.4-19.3h4.5l11.6,19.3h-5.3l-2.4-4.2h-12.7l-2.4,4.2H597.7z M606.8,432.3h8.8l-4.5-8
				L606.8,432.3z"/>
		</g>
		<g>
			<path fill="#FFFFFF" d="M639,424.2V440h-4.7v-15.8H625v-3.5h23.3v3.5H639z"/>
		</g>
		<g>
			<path fill="#FFFFFF" d="M654.3,440v-19.3h4.6V440H654.3z"/>
		</g>
		<g>
			<path fill="#FFFFFF" d="M667.2,425.3c0-1.7,0.3-2.9,1-3.6c0.7-0.6,2-1,4-1H687c2,0,3.3,0.3,4,1c0.7,0.6,1,1.8,1,3.6v10.2
				c0,1.8-0.3,3-1,3.6c-0.7,0.6-2,1-4,1h-14.9c-2,0-3.3-0.3-4-1c-0.7-0.6-1-1.9-1-3.6V425.3z M671.9,436.3h15.5v-12h-15.5V436.3z"/>
		</g>
		<g>
			<path fill="#FFFFFF" d="M700.1,440v-19.3h3.2l16.3,12.8v-12.8h4.3V440h-3.2l-16.3-13v13H700.1z"/>
		</g>
		<g>
			<path fill="#FFFFFF" d="M767.8,424.2h-13.2v4.1h12.5c2,0,3.3,0.3,4,0.9c0.7,0.6,1,1.8,1,3.6v2.6c0,1.8-0.4,3-1.1,3.6
				c-0.7,0.6-2,1-4,1h-12.4c-2,0-3.3-0.3-4-1c-0.7-0.6-1.1-1.8-1.1-3.6v-0.5l4.2-0.8v2.3h14.1V432h-12.4c-2,0-3.3-0.3-4-1
				c-0.7-0.6-1-1.8-1-3.6v-2.2c0-1.7,0.3-2.9,1-3.6c0.7-0.6,2-1,4-1h11.4c1.9,0,3.3,0.3,4,0.9c0.7,0.6,1.1,1.7,1.1,3.3v0.5l-4.1,0.9
				V424.2z"/>
		</g>
		<g>
			<path fill="#FFFFFF" d="M797.2,424.3h-12.6v12h12.6v-4.1l4.7,0.9v2.3c0,1.8-0.3,3-1,3.6c-0.7,0.6-2,1-4,1h-12c-2,0-3.3-0.3-4-1
				c-0.7-0.6-1.1-1.9-1.1-3.6v-10.2c0-1.7,0.3-2.9,1-3.6c0.7-0.6,2-1,4-1h12c2,0,3.3,0.3,4,1c0.7,0.6,1,1.8,1,3.6v1.9l-4.7,0.7
				V424.3z"/>
		</g>
		<g>
			<path fill="#FFFFFF" d="M809.6,440v-19.3h4.6V440H809.6z"/>
		</g>
		<g>
			<path fill="#FFFFFF" d="M822.8,440v-19.3h20.6v3.4h-15.9v4.2h9.3v3.3h-9.3v4.8h16.2v3.6H822.8z"/>
		</g>
		<g>
			<path fill="#FFFFFF" d="M850.4,440v-19.3h3.2l16.3,12.8v-12.8h4.3V440H871l-16.3-13v13H850.4z"/>
		</g>
		<g>
			<path fill="#FFFFFF" d="M899.7,424.3h-12.6v12h12.6v-4.1l4.7,0.9v2.3c0,1.8-0.3,3-1,3.6c-0.7,0.6-2,1-4,1h-12c-1.9,0-3.3-0.3-4-1
				c-0.7-0.6-1-1.9-1-3.6v-10.2c0-1.7,0.3-2.9,1-3.6c0.7-0.6,2-1,4-1h12c2,0,3.3,0.3,4,1c0.7,0.6,1,1.8,1,3.6v1.9l-4.7,0.7V424.3z"
				/>
		</g>
		<g>
			<path fill="#FFFFFF" d="M912.1,440v-19.3h20.6v3.4h-15.9v4.2h9.3v3.3h-9.3v4.8H933v3.6H912.1z"/>
		</g>
		<g>
			<path fill="#FFFFFF" d="M957.5,424.2h-13.2v4.1h12.5c2,0,3.3,0.3,4,0.9c0.7,0.6,1,1.8,1,3.6v2.6c0,1.8-0.3,3-1,3.6
				c-0.7,0.6-2,1-4,1h-12.4c-2,0-3.3-0.3-4-1c-0.7-0.6-1.1-1.8-1.1-3.6v-0.5l4.1-0.8v2.3h14.1V432h-12.4c-2,0-3.3-0.3-4-1
				c-0.7-0.6-1-1.8-1-3.6v-2.2c0-1.7,0.3-2.9,1-3.6c0.7-0.6,2-1,4-1h11.4c2,0,3.3,0.3,4,0.9c0.7,0.6,1.1,1.7,1.1,3.3v0.5l-4.1,0.9
				V424.2z"/>
		</g>
	</g>
	<g>
		<polygon fill="#FFFFFF" points="959.8,398.6 44.7,398.6 44.7,391.9 959.8,391.9 959.8,398.6 		"/>
	</g>
	<g>
		<g>
			<path fill="#FFFFFF" d="M570.5,103.5H431.9v140.3h138.7v-47.3l51.7,10.6v26c0,20.3-3.8,34.1-11.5,41.5c-7.6,7.3-22.2,11-43.6,11
				h-132c-21.6,0-36.2-3.7-43.7-11c-7.6-7.3-11.3-21.2-11.3-41.5V116.3c0-20.1,3.8-33.8,11.3-41.3c7.6-7.4,22.2-11.1,43.7-11.1h132
				c21.4,0,36,3.7,43.6,11.1c7.7,7.4,11.5,21.2,11.5,41.3v20.9l-51.7,8.2V103.5z"/>
		</g>
		<g>
			<path fill="#FFFFFF" d="M642.2,285.6V63.9H694v221.7H642.2z"/>
		</g>
		<g>
			<path fill="#FFFFFF" d="M913.1,102.9H767.9v47.3h138.3c21.7,0,36.3,3.7,43.9,11.1c7.6,7.4,11.4,21.1,11.4,41.2V233
				c0,20.2-3.8,34-11.4,41.4c-7.6,7.4-22.2,11.1-43.9,11.1h-137c-21.6,0-36.2-3.7-43.8-11.1C717.8,267,714,253.2,714,233v-6.2
				l45.7-9.5v26.4h156.3v-50.6H777.8c-21.5,0-36.1-3.7-43.7-11.1c-7.5-7.4-11.3-21.1-11.3-41.1v-24.3c0-20.3,3.8-34.1,11.3-41.6
				c7.6-7.5,22.1-11.2,43.7-11.2h125.9c20.9,0,35.3,3.6,43.2,10.8c7.9,7.2,11.9,19.9,11.9,38.2v4.6l-45.7,10.7V102.9z"/>
		</g>
	</g>
	<g>
		<g>
			<path fill="#FFFFFF" d="M425,330.5l2-4h4.6l-5.1,20.1c-0.1,0.4-0.2,0.7-0.2,1.1c-0.1,0.4-0.1,0.7-0.1,1c0,1.1,0.3,1.9,0.9,2.4
				c0.6,0.6,1.5,0.8,2.6,0.8c1.1,0,2.3-0.3,3.6-0.9c1.3-0.6,2.5-1.5,3.7-2.7c1.9-1.8,3.3-3.9,4.3-6.5c1.1-2.6,1.6-5.3,1.6-8.2
				c0-6-2.2-10.9-6.6-14.7c-4.4-3.7-10.3-5.6-17.4-5.6c-3.1,0-6,0.3-8.6,1c-2.6,0.6-5.1,1.7-7.4,3c-4.5,2.7-7.9,6.1-10.3,10.5
				c-2.5,4.3-3.7,9.1-3.7,14.3c0,4.1,0.7,7.7,2.1,10.7c1.4,3,3.7,5.7,6.7,8c2.3,1.8,5.1,3.2,8.2,4.1c3.2,1,6.5,1.5,10,1.5
				c3.9,0,7.7-0.6,11.4-1.7c3.7-1.2,7.1-2.8,10.2-4.9l1.9,2.9c-3.4,2.6-7.1,4.5-11,5.8c-3.9,1.3-7.9,1.9-12.2,1.9
				c-4.4,0-8.5-0.5-12.1-1.6c-3.7-1.1-6.9-2.7-9.8-4.9c-3.6-2.7-6.3-5.9-8-9.6c-1.8-3.6-2.7-7.8-2.7-12.4c0-3.8,0.6-7.5,1.8-10.9
				c1.2-3.4,3-6.6,5.3-9.4c3.4-4.1,7.5-7.3,12.3-9.4c4.8-2.1,10.1-3.2,15.9-3.2c3.8,0,7.4,0.5,10.8,1.6c3.4,1,6.4,2.5,8.8,4.4
				c3,2.3,5.3,5,6.9,8.1c1.6,3,2.3,6.3,2.3,9.9c0,4.1-0.8,7.8-2.2,11c-1.5,3.3-3.6,6-6.4,8.3c-1.6,1.3-3.3,2.2-5.2,2.9
				c-1.9,0.7-3.8,1-5.8,1c-2.3,0-4-0.5-5.2-1.3c-1.2-0.9-1.8-2.3-1.8-4.1v-0.6c-1.3,2.1-2.8,3.6-4.5,4.5c-1.7,1-3.7,1.5-6,1.5
				c-3.6,0-6.3-1-8.2-3c-1.9-2-2.8-4.8-2.8-8.6c0-5.5,1.6-10,4.8-13.8c3.2-3.7,7.2-5.6,11.8-5.6c2,0,3.7,0.5,5.1,1.3
				C423,327.4,424.2,328.7,425,330.5z M421.7,343.7l2.1-8.2c-0.4-2.1-1.2-3.7-2.4-4.8c-1.2-1.1-2.7-1.7-4.5-1.7
				c-3.2,0-5.9,1.5-8.1,4.5c-2.2,3-3.3,6.8-3.3,11.1c0,2.5,0.6,4.3,1.7,5.6c1.1,1.4,2.7,2,4.8,2c2.3,0,4.3-0.8,6.1-2.4
				C419.9,348.4,421.1,346.3,421.7,343.7z"/>
		</g>
		<g>
			<g>
				<path fill="#FFFFFF" d="M480,368v-55h13.5v22.2l32-22.2h19.4L507,338.5l42.2,29.5H528l-34.5-24.8V368H480z"/>
			</g>
			<g>
				<path fill="#FFFFFF" d="M550.2,345.7v-13.3h30.2v13.3H550.2z"/>
			</g>
			<g>
				<path fill="#FFFFFF" d="M646.4,322.9h-37.9v11.5h35.8c5.6,0,9.4,0.9,11.3,2.7c1.9,1.8,2.9,5.2,2.9,10.2v7.6c0,5.1-1,8.6-3,10.4
					c-2,1.8-5.7,2.7-11.2,2.7h-35.7c-5.7,0-9.5-0.9-11.5-2.7c-2-1.8-3-5.3-3-10.4v-1.6l12-2.2v6.5h40.4V345h-35.5
					c-5.6,0-9.4-0.9-11.3-2.7c-1.9-1.8-2.9-5.2-2.9-10.2V326c0-5,1-8.4,2.9-10.2c2-1.9,5.8-2.8,11.3-2.8h32.7
					c5.5,0,9.3,0.9,11.3,2.7c2,1.8,3,4.9,3,9.3v1.3l-11.5,2.5V322.9z"/>
			</g>
			<g>
				<path fill="#FFFFFF" d="M714.2,322.9V368h-13.3v-45.1h-26.6V313h66.5v9.9H714.2z"/>
			</g>
			<g>
				<path fill="#FFFFFF" d="M740.4,368l32.5-55h12.8l33.1,55h-15l-6.9-12.2h-36.3l-6.9,12.2H740.4z M766.3,345.9h25.1L778.6,323
					L766.3,345.9z"/>
			</g>
			<g>
				<path fill="#FFFFFF" d="M858.2,322.9V368h-13.3v-45.1h-26.6V313h66.5v9.9H858.2z"/>
			</g>
			<g>
				<path fill="#FFFFFF" d="M902.1,368v-55h58.8v9.7h-45.3v12h26.4v9.5h-26.4v13.5h46V368H902.1z"/>
			</g>
		</g>
	</g>
	<g>
		<path fill="#FFFFFF" d="M308.3,375.2H84.4c-30.9,0-45.9-15-45.9-45.9V105.4c0-30.9,15-45.9,45.9-45.9h223.8
			c30.9,0,45.9,15,45.9,45.9v223.8C354.2,360.1,339.2,375.2,308.3,375.2L308.3,375.2z M84.4,68.3C58,68.3,47.3,79,47.3,105.4v223.8
			c0,26.4,10.8,37.2,37.2,37.2h223.8c26.4,0,37.2-10.8,37.2-37.2V105.4c0-26.4-10.8-37.2-37.2-37.2H84.4L84.4,68.3z"/>
	</g>
	<g>
		<g>
			<g>
				<path fill="#FFFFFF" d="M95.6,243.9c0-59.1,42.9-108.2,99.2-117.9c-6.7-1.1-13.5-1.8-20.5-1.8c-66.1,0-119.7,53.6-119.7,119.7
					c0,66.1,53.6,119.7,119.7,119.7c7,0,13.8-0.6,20.5-1.8C138.4,352.2,95.6,303.1,95.6,243.9z"/>
			</g>
			<g>
				<path fill="#FFFFFF" d="M225,318.1c-59.1,0-108.2-42.9-117.9-99.3c-1.1,6.6-1.8,13.5-1.8,20.5c0,66.1,53.6,119.7,119.7,119.7
					c66.1,0,119.7-53.6,119.7-119.7c0-7-0.6-13.8-1.8-20.5C333.2,275.2,284.1,318.1,225,318.1z"/>
			</g>
			<g>
				<path fill="#FFFFFF" d="M299.2,190.7c0,59.1-42.9,108.2-99.3,117.9c6.7,1.1,13.5,1.8,20.5,1.8c66.1,0,119.7-53.6,119.7-119.7
					c0-66.1-53.6-119.7-119.7-119.7c-7,0-13.8,0.6-20.5,1.8C256.3,82.5,299.2,131.6,299.2,190.7z"/>
			</g>
			<g>
				<path fill="#FFFFFF" d="M167.7,114.5c59.1,0,108.2,42.9,117.9,99.2c1.1-6.7,1.8-13.5,1.8-20.5c0-66.1-53.6-119.7-119.7-119.7
					C101.6,73.6,48,127.2,48,193.3c0,7,0.6,13.8,1.8,20.5C59.5,157.4,108.5,114.5,167.7,114.5z"/>
			</g>
		</g>
		<g>
			<path fill="#FFFFFF" d="M230.6,250.6c-18.9,18.9-49.6,18.9-68.6,0c-18.9-18.9-18.9-49.6,0-68.6c18.9-18.9,49.6-18.9,68.6,0
				C249.6,200.9,249.6,231.6,230.6,250.6z"/>
		</g>
	</g>
</g>
</svg>
