<?xml version="1.0" encoding="utf-8"?>
<!-- Generator: Adobe Illustrator 18.1.1, SVG Export Plug-In . SVG Version: 6.00 Build 0)  -->
<svg version="1.1" id="Layer_1" xmlns="http://www.w3.org/2000/svg" xmlns:xlink="http://www.w3.org/1999/xlink" x="0px" y="0px"
	 viewBox="0 0 1000 400" enable-background="new 0 0 1000 400" xml:space="preserve">
<g>
	<g>
		<g>
			<path fill="#FFFFFF" d="M572.5,81.3H426.3v148h146.3v-49.9l54.5,11.2V218c0,21.4-4,36-12.1,43.8c-8,7.7-23.4,11.6-46,11.6H429.8
				c-22.8,0-38.2-3.9-46.1-11.6c-8-7.7-11.9-22.4-11.9-43.8V94.8c0-21.2,4-35.7,11.9-43.6c8-7.8,23.4-11.7,46.1-11.7H569
				c22.6,0,38,3.9,46,11.7c8.1,7.8,12.1,22.4,12.1,43.6v22l-54.5,8.7V81.3H572.5z"/>
		</g>
		<g>
			<path fill="#FFFFFF" d="M648.1,273.4V39.5h54.6v233.9H648.1z"/>
		</g>
		<g>
			<path fill="#FFFFFF" d="M933.9,80.7H780.7v49.9h145.9c22.9,0,38.3,3.9,46.3,11.7c8,7.8,12,22.3,12,43.5v32.2
				c0,21.3-4,35.9-12,43.7c-8,7.8-23.4,11.7-46.3,11.7H782.1c-22.8,0-38.2-3.9-46.2-11.7c-8-7.8-12-22.4-12-43.7v-6.5l48.2-10v27.9
				H937v-53.4H791.2c-22.7,0-38.1-3.9-46.1-11.7c-7.9-7.8-11.9-22.3-11.9-43.4V95.1c0-21.4,4-36,11.9-43.9
				c8-7.9,23.3-11.8,46.1-11.8H924c22,0,37.2,3.8,45.6,11.4s12.6,21,12.6,40.3V96l-48.2,11.3L933.9,80.7L933.9,80.7z"/>
		</g>
	</g>
	<g>
		<g>
			<path fill="#FFFFFF" d="M419,320.8l2.1-4.2h4.9l-5.4,21.2c-0.1,0.4-0.2,0.7-0.2,1.2c-0.1,0.4-0.1,0.7-0.1,1.1
				c0,1.2,0.3,2,0.9,2.5c0.6,0.6,1.6,0.8,2.7,0.8s2.4-0.3,3.8-0.9c1.4-0.6,2.6-1.6,3.9-2.8c2-1.9,3.5-4.1,4.5-6.9
				c1.2-2.7,1.7-5.6,1.7-8.7c0-6.3-2.3-11.5-7-15.5c-4.6-3.9-10.9-5.9-18.4-5.9c-3.3,0-6.3,0.3-9.1,1.1c-2.7,0.6-5.4,1.8-7.8,3.2
				c-4.7,2.8-8.3,6.4-10.9,11.1c-2.6,4.5-3.9,9.6-3.9,15.1c0,4.3,0.7,8.1,2.2,11.3c1.5,3.2,3.9,6,7.1,8.4c2.4,1.9,5.4,3.4,8.7,4.3
				c3.4,1.1,6.9,1.6,10.5,1.6c4.1,0,8.1-0.6,12-1.8c3.9-1.3,7.5-3,10.8-5.2l2,3.1c-3.6,2.7-7.5,4.7-11.6,6.1s-8.3,2-12.9,2
				c-4.6,0-9-0.5-12.8-1.7c-3.9-1.2-7.3-2.8-10.3-5.2c-3.8-2.8-6.6-6.2-8.4-10.1c-1.9-3.8-2.8-8.2-2.8-13.1c0-4,0.6-7.9,1.9-11.5
				c1.3-3.6,3.2-7,5.6-9.9c3.6-4.3,7.9-7.7,13-9.9s10.7-3.4,16.8-3.4c4,0,7.8,0.5,11.4,1.7c3.6,1.1,6.8,2.6,9.3,4.6
				c3.2,2.4,5.6,5.3,7.3,8.5c1.7,3.2,2.4,6.6,2.4,10.4c0,4.3-0.8,8.2-2.3,11.6c-1.6,3.5-3.8,6.3-6.8,8.8c-1.7,1.4-3.5,2.3-5.5,3.1
				c-2,0.7-4,1.1-6.1,1.1c-2.4,0-4.2-0.5-5.5-1.4c-1.3-0.9-1.9-2.4-1.9-4.3v-0.6c-1.4,2.2-3,3.8-4.7,4.7c-1.8,1.1-3.9,1.6-6.3,1.6
				c-3.8,0-6.6-1.1-8.7-3.2c-2-2.1-3-5.1-3-9.1c0-5.8,1.7-10.5,5.1-14.6c3.4-3.9,7.6-5.9,12.4-5.9c2.1,0,3.9,0.5,5.4,1.4
				C416.9,317.5,418.2,318.9,419,320.8z M415.5,334.7l2.2-8.7c-0.4-2.2-1.3-3.9-2.5-5.1c-1.3-1.2-2.8-1.8-4.7-1.8
				c-3.4,0-6.2,1.6-8.5,4.7s-3.5,7.2-3.5,11.7c0,2.6,0.6,4.5,1.8,5.9c1.2,1.5,2.8,2.1,5.1,2.1c2.4,0,4.5-0.8,6.4-2.5
				C413.6,339.6,414.9,337.4,415.5,334.7z"/>
		</g>
		<g>
			<g>
				<path fill="#FFFFFF" d="M477,360.3v-58h14.2v23.4l33.8-23.4h20.5l-40,26.9l44.5,31.1h-22.4l-36.4-26.2v26.2H477z"/>
			</g>
			<g>
				<path fill="#FFFFFF" d="M551.1,336.8v-14h31.9v14H551.1z"/>
			</g>
			<g>
				<path fill="#FFFFFF" d="M652.6,312.7h-40v12.1h37.8c5.9,0,9.9,0.9,11.9,2.8c2,1.9,3.1,5.5,3.1,10.8v8c0,5.4-1.1,9.1-3.2,11
					s-6,2.8-11.8,2.8h-37.7c-6,0-10-0.9-12.1-2.8c-2.1-1.9-3.2-5.6-3.2-11v-1.7l12.7-2.3v6.9h42.6v-13.3h-37.5
					c-5.9,0-9.9-0.9-11.9-2.8c-2-1.9-3.1-5.5-3.1-10.8V316c0-5.3,1.1-8.9,3.1-10.8c2.1-2,6.1-3,11.9-3h34.5c5.8,0,9.8,0.9,11.9,2.8
					c2.1,1.9,3.2,5.2,3.2,9.8v1.4l-12.1,2.6v-6.2H652.6z"/>
			</g>
			<g>
				<path fill="#FFFFFF" d="M724.1,312.7v47.6h-14v-47.6H682v-10.4h70.2v10.4H724.1z"/>
			</g>
			<g>
				<path fill="#FFFFFF" d="M751.7,360.3l34.3-58h13.5l34.9,58h-15.8l-7.3-12.9H773l-7.3,12.9H751.7z M779.1,337h26.5L792,312.9
					L779.1,337z"/>
			</g>
			<g>
				<path fill="#FFFFFF" d="M876,312.7v47.6h-14v-47.6h-28.1v-10.4h70.2v10.4H876z"/>
			</g>
			<g>
				<path fill="#FFFFFF" d="M922.3,360.3v-58h62v10.2h-47.8v12.7h27.9v10h-27.9v14.2h48.5v10.9H922.3z"/>
			</g>
		</g>
	</g>
	<g>
		<path fill="#FFFFFF" d="M295.9,367.9H59.7c-32.6,0-48.4-15.8-48.4-48.4V83.3c0-32.6,15.8-48.4,48.4-48.4h236.1
			c32.6,0,48.4,15.8,48.4,48.4v236.1C344.3,352,328.5,367.9,295.9,367.9L295.9,367.9z M59.7,44.2c-27.9,0-39.1,11.3-39.1,39.1v236.1
			c0,27.9,11.4,39.2,39.2,39.2h236.1c27.9,0,39.2-11.4,39.2-39.2V83.3c0-27.9-11.4-39.2-39.2-39.2H59.7V44.2z"/>
	</g>
	<g>
		<g>
			<g>
				<path fill="#FFFFFF" d="M71.5,229.4c0-62.3,45.3-114.1,104.6-124.4c-7.1-1.2-14.2-1.9-21.6-1.9c-69.7,0-126.3,56.5-126.3,126.3
					s56.5,126.3,126.3,126.3c7.4,0,14.6-0.6,21.6-1.9C116.7,343.7,71.5,291.9,71.5,229.4z"/>
			</g>
			<g>
				<path fill="#FFFFFF" d="M208,307.7c-62.3,0-114.1-45.3-124.4-104.8c-1.2,7-1.9,14.2-1.9,21.6c0,69.7,56.5,126.3,126.3,126.3
					s126.3-56.5,126.3-126.3c0-7.4-0.6-14.6-1.9-21.6C322.2,262.4,270.4,307.7,208,307.7z"/>
			</g>
			<g>
				<path fill="#FFFFFF" d="M286.3,173.3c0,62.3-45.3,114.1-104.8,124.4c7.1,1.2,14.2,1.9,21.6,1.9c69.7,0,126.3-56.5,126.3-126.3
					S272.9,47,203.2,47c-7.4,0-14.6,0.6-21.6,1.9C241,59.1,286.3,110.9,286.3,173.3z"/>
			</g>
			<g>
				<path fill="#FFFFFF" d="M147.6,92.9c62.3,0,114.1,45.3,124.4,104.6c1.2-7.1,1.9-14.2,1.9-21.6c0-69.7-56.5-126.3-126.3-126.3
					C77.8,49.8,21.3,106.3,21.3,176c0,7.4,0.6,14.6,1.9,21.6C33.4,138.2,85.1,92.9,147.6,92.9z"/>
			</g>
		</g>
		<g>
			<path fill="#FFFFFF" d="M213.9,236.5c-19.9,19.9-52.3,19.9-72.4,0c-19.9-19.9-19.9-52.3,0-72.4c19.9-19.9,52.3-19.9,72.4,0
				S234,216.4,213.9,236.5z"/>
		</g>
	</g>
</g>
</svg>
